<svg width="160" height="54" viewBox="0 0 160 54" fill="none" xmlns="http://www.w3.org/2000/svg">
<path fill-rule="evenodd" clip-rule="evenodd" d="M55.1285 41.7687L54.8053 43.005C55.3522 43.2559 55.9492 43.3787 56.5507 43.3641C57.8304 43.3641 59.1318 42.9014 59.1318 41.3528C59.1318 39.8964 57.1972 39.6195 57.1972 38.8693C57.1972 38.3934 57.7525 38.2667 58.1982 38.2667C58.6194 38.2831 59.0338 38.3773 59.4207 38.5447L59.7422 37.3768C59.2142 37.2267 58.6691 37.1452 58.1203 37.1343C56.9406 37.1343 55.6399 37.632 55.6399 39.0298C55.6399 40.5205 57.5745 40.6125 57.5745 41.5722C57.5745 42.0587 57.0519 42.2317 56.5507 42.2317C56.0427 42.2137 55.55 42.0536 55.1285 41.7694M46.2189 37.9325L45.174 43.2268H46.6636L47.2532 40.3938C47.4414 39.5963 47.72 38.3379 48.7323 38.3379C48.8263 38.3358 48.9197 38.353 49.0067 38.3885C49.0938 38.4239 49.1727 38.4769 49.2385 38.544C49.3043 38.6112 49.3556 38.6911 49.3893 38.7789C49.4229 38.8666 49.4382 38.9604 49.4342 39.0543C49.409 39.4825 49.3453 39.9075 49.244 40.3243L48.6442 43.2268H50.1337L50.7234 40.3938C50.9122 39.5865 51.1681 38.3379 52.2035 38.3379C52.2973 38.336 52.3904 38.3533 52.4773 38.3889C52.5641 38.4245 52.6427 38.4774 52.7082 38.5446C52.7737 38.6118 52.8247 38.6917 52.8581 38.7793C52.8915 38.867 52.9065 38.9606 52.9023 39.0543C52.8776 39.4825 52.8146 39.9075 52.7138 40.3243L52.114 43.2268H53.6039L54.2048 40.3836C54.3525 39.8558 54.4383 39.3125 54.4603 38.7648C54.4617 38.3389 54.2959 37.9294 53.9984 37.6247C53.701 37.3199 53.2957 37.1442 52.87 37.1353C52.4622 37.1168 52.0573 37.2131 51.7015 37.4133C51.3458 37.6134 51.0533 37.9095 50.8575 38.2677H50.8343C50.7567 37.552 50.0558 37.1353 49.3781 37.1353C49.0301 37.131 48.6866 37.2145 48.3795 37.3782C48.0723 37.5419 47.8115 37.7805 47.6211 38.0719H47.5993L47.7323 37.274H46.3424C46.3073 37.4597 46.2645 37.7015 46.2199 37.9328M40.7345 39.6661C41.0237 38.8465 41.4249 38.2688 42.3469 38.2688C42.9695 38.2688 43.2945 38.6257 43.2945 39.2625C43.2938 39.3978 43.2821 39.5328 43.2594 39.6661H40.7345ZM39.1108 40.7645C39.1108 42.5318 40.2241 43.3651 41.8695 43.3651C42.4909 43.3464 43.1057 43.233 43.6929 43.0289L43.8821 41.8049C43.3364 42.0767 42.7367 42.2227 42.1272 42.2321C41.1034 42.2321 40.5365 41.8277 40.5365 40.7294H44.5728C44.6661 40.2925 44.7149 39.8472 44.7185 39.4004C44.7185 37.8869 43.7848 37.1343 42.3732 37.1343C40.4926 37.1343 39.1133 38.915 39.1133 40.7645M35.0205 38.4057H36.0994L35.6782 40.417C35.5663 40.8716 35.5026 41.3368 35.488 41.8049C35.488 42.9481 36.2012 43.3651 37.2127 43.3651C37.4834 43.3463 37.7516 43.3001 38.013 43.2272L38.2688 42.0239C38.0392 42.1167 37.7938 42.1644 37.5462 42.1643C37.4697 42.1686 37.3932 42.1565 37.3217 42.1289C37.2503 42.1013 37.1856 42.0588 37.1319 42.0042C37.0782 41.9496 37.0367 41.8841 37.0103 41.8122C36.9839 41.7403 36.9731 41.6636 36.9786 41.5872C36.9792 41.3928 37.0016 41.199 37.0453 41.0095L37.59 38.4071H38.9259L39.1575 37.2754H37.8238L38.1909 35.507L36.5901 36.0504L36.3342 37.2754H35.2553L35.0205 38.4057ZM29.793 41.7698L29.4704 43.006C30.0174 43.2569 30.6143 43.3797 31.2159 43.3651C32.4955 43.3651 33.7963 42.9025 33.7963 41.3538C33.7963 39.8975 31.8613 39.6205 31.8613 38.8704C31.8613 38.3944 32.4176 38.2677 32.8627 38.2677C33.2842 38.2841 33.699 38.3783 34.0862 38.5457L34.4073 37.3779C33.8791 37.2277 33.3338 37.1462 32.7848 37.1353C31.6058 37.1353 30.3051 37.6331 30.3051 39.0308C30.3051 40.5216 32.239 40.6135 32.239 41.5732C32.239 42.0597 31.7171 42.2328 31.2159 42.2328C30.7077 42.2147 30.2148 42.0545 29.793 41.7705M23.0945 44.4501L22.7607 45.6292C23.1222 45.7344 23.4965 45.7889 23.873 45.791C25.1299 45.791 25.6963 44.9352 26.1519 44.1251L30.0334 37.2729H28.3993L26.1179 41.6992H26.094L25.5605 37.2729H24.0387L25.0512 43.5143C24.5283 44.3567 24.1945 44.5891 23.7488 44.5891C23.523 44.5888 23.2999 44.541 23.0938 44.4487M17.6312 41.5353L17.23 42.9109C17.9349 43.1922 18.6845 43.3449 19.4433 43.362C21.1448 43.362 22.6347 42.6452 22.6347 40.669C22.6347 38.4253 19.988 38.5064 19.988 37.2129C19.988 36.519 20.7342 36.2876 21.2894 36.2876C21.8522 36.2979 22.4047 36.4407 22.9018 36.7047L23.2686 35.3757C22.6283 35.1249 21.9447 35.003 21.2571 35.017C19.7655 35.017 18.364 35.7566 18.364 37.4555C18.364 39.6068 21.0118 39.3745 21.0118 40.8298C21.0118 41.6971 20.2779 42.0892 19.5324 42.0892C18.8653 42.049 18.2156 41.8597 17.6312 41.5353ZM9.82149 39.663C10.1104 38.8434 10.5108 38.2656 11.4328 38.2656C12.0565 38.2656 12.3787 38.6226 12.3787 39.2593C12.3783 39.3945 12.3675 39.5295 12.3464 39.663H9.82149ZM8.1975 40.7613C8.1975 42.5287 9.30906 43.362 10.9566 43.362C11.5779 43.3431 12.1927 43.2297 12.7799 43.0257L12.968 41.8017C12.4225 42.0739 11.8227 42.2199 11.2131 42.2289C10.189 42.2289 9.62248 41.8245 9.62248 40.7262H13.6588C13.752 40.2893 13.8007 39.844 13.8041 39.3973C13.8041 37.8837 12.8698 37.1311 11.4581 37.1311C9.57861 37.1311 8.1989 38.9118 8.1989 40.7613M3.36205 40.7964C3.36205 42.3346 4.31741 43.3616 5.79679 43.3616C6.29043 43.3847 6.78247 43.29 7.2323 43.0854L7.39762 41.8593C7.02116 42.0487 6.60702 42.1512 6.18568 42.1594C5.16257 42.1594 4.91829 41.3872 4.91829 40.6104C4.91829 39.4906 5.58516 38.3358 6.77674 38.3358C7.161 38.3266 7.53943 38.4309 7.86477 38.6356L8.23155 37.3639C7.74886 37.2134 7.2465 37.1356 6.74093 37.1329C4.68454 37.1329 3.36134 38.7163 3.36134 40.7964M1.63486 35.1567L0 43.2261H1.62364L3.25886 35.1581H1.63417L1.63486 35.1567ZM19.213 12.3935L20.6731 7.71133C19.1481 6.96684 16.5224 6.66602 13.7349 6.66602C8.77627 6.66602 3.65406 8.48497 3.65406 14.548C3.65406 21.1822 12.4412 19.7693 12.4412 23.5441C12.4412 25.9696 9.49052 26.3396 7.60786 26.3396C5.63148 26.3396 3.23288 25.8011 2.03323 24.991L0.606494 29.776C2.86892 30.5183 5.22757 30.9264 7.60786 30.9874C12.8606 30.9874 18.6606 29.3025 18.6606 22.8024C18.6606 15.6611 9.8801 16.9079 9.8801 13.5708C9.8801 11.6841 11.8235 11.3127 14.22 11.3127C15.946 11.2754 17.6566 11.6453 19.213 12.3924M35.454 18.0185L36.7175 13.8088C35.0323 13.0943 33.2307 12.6942 31.4015 12.6283C24.9179 12.6283 20.5106 17.2097 20.5106 22.9713C20.5106 27.3846 23.5568 30.9874 28.4831 30.9874C30.7522 30.9874 32.3088 30.7192 33.4779 30.3145L34.3203 25.7657C33.1389 26.2985 31.8542 26.5631 30.5585 26.5404C28.096 26.5404 26.5408 24.8236 26.5408 22.735C26.5408 19.0961 28.679 17.0753 31.6943 17.0753C33.0028 17.1052 34.2882 17.4274 35.4561 18.0185M50.3647 20.4085C50.3647 24.3834 48.6466 26.7422 45.9241 26.7422C43.9449 26.7773 42.748 25.1946 42.748 22.8347C42.748 20.0393 44.498 16.8735 47.3168 16.8735C49.5873 16.8735 50.3647 18.5906 50.3647 20.4085ZM56.3917 20.4752C56.3917 16.0654 53.3459 12.6283 47.6095 12.6283C40.9949 12.6283 36.7185 16.8054 36.7185 22.9713C36.7185 27.3839 39.2456 30.9863 45.5039 30.9863C51.8216 30.9863 56.3917 27.7882 56.3917 20.4752ZM71.5295 13.0337H67.509L68.6746 7.54144L62.5153 9.2614L61.7042 13.0337H58.3698L57.6556 17.2757H60.7684L59.7615 22.1959C59.3719 24.0482 59.2445 24.9257 59.2445 25.7997C59.2445 29.471 61.6104 30.9881 64.5889 30.9881C65.8067 30.9725 67.0214 30.8606 68.2215 30.6532L68.8691 26.6411C68.278 26.9196 67.6423 27.0911 66.9913 27.1476C66.7327 27.1626 66.4738 27.122 66.2321 27.0286C65.9904 26.9352 65.7716 26.7911 65.5902 26.606C65.4088 26.421 65.2692 26.1993 65.1806 25.9557C65.092 25.7122 65.0566 25.4526 65.0767 25.1942C65.0767 24.3518 65.3038 23.4781 65.5614 22.1608L66.5684 17.2757H70.8153L71.5295 13.0337ZM84.0736 17.6471L85.302 13.6733C83.4983 13.041 81.6083 12.6888 79.6979 12.629C75.7736 12.629 71.169 14.2788 71.169 18.3895C71.169 24.1854 78.1385 22.9032 78.1385 25.3957C78.1385 26.8419 75.8062 26.9475 74.8663 26.9475C73.2346 26.9491 71.6211 26.6043 70.1326 25.9359L68.9652 30.0779C71.2779 30.71 73.6675 31.0163 76.0649 30.9877C80.4427 30.9224 83.9746 28.7644 83.9746 24.4164C83.9746 20.0045 76.6809 20.1418 76.6809 18.1856C76.6809 16.9735 78.1079 16.6723 79.4038 16.6723C81.0114 16.6615 82.6028 16.9937 84.0718 17.6468M114.12 21.7922C114.371 20.4933 114.502 19.1738 114.51 17.8507C114.51 13.9432 111.851 12.6276 109.256 12.6276C106.824 12.6276 104.653 13.9762 103.229 16.1999C102.775 13.8091 100.763 12.6276 98.7874 12.6276C96.4239 12.6276 94.2488 13.9762 92.8207 16.1999L92.76 16.2332L93.4065 13.0334H88.2194C88.0579 14.6168 87.7982 16.0981 87.5093 17.6124L84.8808 30.5823H90.7141L92.3693 22.4992C92.76 20.6114 93.4065 17.6801 95.8381 17.6801C97.1995 17.6801 97.7186 18.3579 97.7186 19.4998C97.6933 20.3624 97.5844 21.2205 97.3936 22.0621L95.7072 30.584H101.541L103.194 22.5009C103.586 20.6132 104.232 17.6819 106.663 17.6819C108.025 17.6819 108.544 18.3597 108.544 19.5015C108.519 20.3641 108.41 21.2222 108.22 22.0639L106.535 30.5858H112.369L114.12 21.7922ZM127.667 22.8017C127.246 25.1598 125.753 26.9472 123.259 26.9472C122.766 26.9713 122.283 26.8015 121.913 26.474C121.544 26.1465 121.317 25.6874 121.282 25.1949C121.282 23.6452 123.323 22.5974 126.114 22.7003C126.634 22.6876 127.154 22.7215 127.667 22.8017ZM131.655 30.5823C132.303 25.295 133.796 21.3531 133.796 18.5903C133.796 14.2784 130.489 12.6287 126.469 12.6287C124.361 12.5921 122.264 12.9344 120.278 13.6392L119.697 18.055C121.357 17.0919 123.254 16.613 125.172 16.6723C127.087 16.6723 128.284 17.6808 128.284 18.928C128.294 19.1655 128.273 19.4034 128.22 19.6352C127.409 19.5675 126.244 19.4657 125.075 19.4657C119.923 19.4657 115.772 21.5893 115.772 25.9022C115.772 29.3032 117.783 30.9877 121.412 30.9877C123.682 30.9877 125.855 30.1453 127.087 28.1255V28.0571L127.152 28.1255L126.891 30.5826H131.653L131.655 30.5823ZM153.988 22.3984C154.342 20.5423 154.438 19.8711 154.438 18.6921C154.438 15.2557 152.591 12.6276 149.186 12.6276C146.112 12.6276 144.358 13.9432 142.675 15.8966H142.607L143.065 13.0334H137.655C137.486 14.6168 137.231 16.0981 136.937 17.6124L134.311 30.5823H140.147L141.801 22.4992C142.222 19.9017 143.677 17.6801 146.141 17.6801C147.763 17.6124 148.41 18.6577 148.41 19.7009C148.363 20.5983 148.233 21.4895 148.024 22.3633L146.402 30.5823H152.431L153.988 22.3984ZM158.392 14.8018H158.055V14.3585H158.326C158.466 14.3585 158.668 14.3718 158.668 14.5638C158.668 14.7716 158.564 14.8039 158.392 14.8039M159.102 15.8991L158.646 15.0917C158.707 15.092 158.768 15.0791 158.824 15.054C158.879 15.0288 158.929 14.992 158.97 14.946C159.01 14.9 159.04 14.8458 159.058 14.7872C159.075 14.7286 159.08 14.6669 159.072 14.6063C159.072 14.1819 158.802 14.0447 158.339 14.0447H157.675V15.9012H158.054V15.1219H158.235L158.646 15.9012H159.103L159.102 15.8991ZM159.517 14.9752C159.529 15.141 159.508 15.3077 159.455 15.4652C159.402 15.6227 159.317 15.7678 159.206 15.8918C159.095 16.0158 158.961 16.1161 158.81 16.1868C158.66 16.2575 158.496 16.297 158.33 16.3031V16.2992C158.062 16.3286 157.792 16.276 157.554 16.1483C157.317 16.0205 157.123 15.8237 157 15.5839C156.877 15.344 156.829 15.0724 156.864 14.8049C156.898 14.5375 157.013 14.2868 157.193 14.086C157.373 13.8851 157.61 13.7437 157.872 13.6803C158.134 13.6169 158.409 13.6346 158.661 13.7309C158.913 13.8273 159.129 13.9979 159.282 14.22C159.435 14.4422 159.517 14.7055 159.517 14.9752ZM159.998 14.9752C159.986 14.6482 159.879 14.3319 159.689 14.0655C159.499 13.7991 159.235 13.5944 158.93 13.4771C158.624 13.3597 158.291 13.3348 157.972 13.4055C157.653 13.4761 157.361 13.6392 157.134 13.8744C156.906 14.1096 156.753 14.4066 156.693 14.7282C156.633 15.0498 156.669 15.382 156.797 15.6832C156.925 15.9845 157.138 16.2415 157.411 16.4223C157.683 16.6031 158.003 16.6997 158.33 16.7001C158.555 16.7044 158.779 16.6623 158.987 16.5764C159.195 16.4905 159.383 16.3626 159.539 16.2008C159.696 16.0389 159.817 15.8466 159.896 15.6357C159.975 15.4248 160.01 15.2 159.998 14.9752Z" fill="white"/>
</svg>
