<svg width="162" height="54" viewBox="0 0 162 54" fill="none" xmlns="http://www.w3.org/2000/svg">
<g clip-path="url(#clip0_2098_878)">
<g clip-path="url(#clip1_2098_878)">
<path d="M162.261 20.8201V24.0083L147.006 24.0276C146.481 24.0276 146.341 24.2641 146.341 24.5929V25.4813C146.341 25.8159 146.481 26.0851 147.006 26.0851L158.576 26.0639C161.317 26.0639 162.687 27.1536 162.687 29.3329V31.202C162.687 33.4172 161.311 34.5255 158.557 34.5268H143.097V31.3424H158.672C159.188 31.3424 159.338 31.0789 159.338 30.7655V29.8425C159.338 29.5098 159.188 29.2522 158.672 29.2522H147.112C144.358 29.2522 142.982 28.2779 142.983 26.3293V24.1641C142.983 21.9348 144.366 20.8201 147.131 20.8201H162.261ZM139.082 20.8201H142.927L135.653 29.8829V34.5306H132.292V29.954L124.871 20.8201H128.748L133.87 27.3485L139.082 20.8201ZM123.937 20.8201V24.0083H108.672C108.149 24.0083 108.013 24.2718 108.013 24.6006V25.489C108.013 25.8236 108.149 26.0659 108.672 26.0659H120.25C122.992 26.0659 124.363 27.1555 124.361 29.3348V31.2039C124.361 33.4192 122.985 34.5274 120.231 34.5287H104.753V31.3424H120.354C120.869 31.3424 121.002 31.0905 121.002 30.7655V29.8425C121.002 29.5098 120.869 29.2522 120.354 29.2522H108.784C106.033 29.2522 104.657 28.2779 104.655 26.3293V24.1641C104.655 21.9348 106.037 20.8201 108.801 20.8201H123.937ZM81.9762 20.8201H98.4788C101.117 20.8201 102.436 21.9348 102.434 24.1641V25.3967C102.434 27.7157 101.394 29.106 98.7557 29.106H97.602L103.003 34.5306H98.375L93.0504 29.2137H85.3336V34.5364H81.9762V20.8201ZM85.3336 24.0083V26.137H98.5807C99.0268 26.137 99.2422 25.9082 99.2422 25.5409V24.6756C99.2422 24.3198 99.0922 24.0006 98.5807 24.0006L85.3336 24.0083ZM79.5629 31.3501V34.5383H64.4333C61.6796 34.5383 60.3028 33.4185 60.3028 31.1789V24.1718C60.3028 21.9425 61.6796 20.8278 64.4333 20.8278H79.511V24.0218H64.4333C64.3308 24.0109 64.2271 24.0228 64.1297 24.0567C64.0324 24.0907 63.9438 24.1457 63.8702 24.218C63.7967 24.2902 63.74 24.3779 63.7044 24.4746C63.6688 24.5714 63.655 24.6748 63.6641 24.7775V26.0774H79.4091V29.2137H63.6622V30.6713C63.6622 31.127 63.9179 31.3559 64.4314 31.3559L79.5629 31.3501ZM56.305 20.8143L50.3017 31.3193V31.3116L44.2983 20.8066H40.4389L48.2806 34.5306L52.3227 34.5383L60.1644 20.8143H56.305ZM28.7417 23.8968V23.4776C28.7428 23.3005 28.7082 23.125 28.64 22.9616C28.5718 22.7982 28.4713 22.6503 28.3445 22.5266C28.2178 22.4029 28.0674 22.3061 27.9024 22.2418C27.7374 22.1776 27.5611 22.1473 27.3841 22.1527H17.756C16.683 22.1527 16.1472 22.6764 16.1484 23.7237V25.2178H27.3841C27.5619 25.2278 27.7398 25.2007 27.9066 25.1383C28.0734 25.0759 28.2254 24.9796 28.353 24.8554C28.4806 24.7312 28.581 24.5819 28.6479 24.4169C28.7149 24.2519 28.7468 24.0748 28.7417 23.8968Z" fill="white"/>
<path d="M38.6899 16.4245C38.04 15.438 36.5112 14.8496 35.3325 14.8496H3.63678C2.44648 14.8496 1.42925 14.8785 0.454324 15.7726C-0.520603 16.6668 -0.678283 17.6513 -0.678283 18.8858V35.6442C-0.678283 36.798 -0.80712 37.8517 -0.101404 38.9247C0.550471 39.9093 1.78115 40.4977 2.96183 40.4977H34.9537C36.142 40.4977 37.1612 40.4708 38.1342 39.5747C39.1072 38.6786 39.2706 37.6998 39.2706 36.4653V19.7031C39.2706 18.5609 39.3976 17.4975 38.6899 16.4245ZM8.99791 22.7432C8.99791 18.723 11.6958 16.7129 17.0915 16.7129H30.3155C34.0332 16.7129 35.892 18.407 35.892 21.7952V24.9065C35.892 26.5372 35.435 27.7365 34.521 28.5044C33.607 29.2722 32.2141 29.6568 30.3425 29.6581H16.1474V31.0042C16.1474 31.9233 16.6896 32.606 17.7799 32.606H35.6478V38.3402H17.1627C11.7195 38.3402 8.99791 36.1525 8.99791 31.7772V22.7432Z" fill="white"/>
</g>
</g>
<defs>
<clipPath id="clip0_2098_878">
<rect width="162" height="54" fill="white"/>
</clipPath>
<clipPath id="clip1_2098_878">
<rect width="163.376" height="25.65" fill="white" transform="translate(-0.6875 14.8496)"/>
</clipPath>
</defs>
</svg>
