<svg width="162" height="54" viewBox="0 0 162 54" fill="none" xmlns="http://www.w3.org/2000/svg">
<path d="M13.9027 21.5364C12.6069 20.9425 10.9332 20.6456 9.5834 20.6456C5.66906 20.6456 3.53641 23.2911 3.53641 26.7196C3.53641 30.121 5.64206 32.6856 9.20547 32.6856C10.1233 32.6856 10.8252 32.5776 11.4191 32.4426V28.0693H7.85569V25.4238H14.6046V34.4403C12.8229 34.9262 10.9872 35.3041 9.17847 35.3041C3.75237 35.3041 0 32.6046 0 26.9355C0 21.2125 3.50942 18 9.17847 18C11.1221 18 12.6609 18.27 14.0917 18.7019L13.9027 21.5364ZM17.6551 35.0342H21.0025V28.0693H22.0823C23.5131 28.0693 23.918 28.5552 24.4039 29.797L26.4286 35.0342H30.154L27.4814 28.5013C27.1575 27.7454 26.6176 26.8545 25.6997 26.7735V26.6926C27.8324 26.3956 29.1551 24.7759 29.1551 22.8052C29.1551 18.162 24.8629 18.27 21.2725 18.27H17.6551V35.0342ZM21.0295 20.9425H22.1363C23.81 20.9425 25.6727 21.1045 25.6727 23.1291C25.6727 25.2078 23.783 25.4508 22.1363 25.4508H21.0295V20.9425ZM32.1246 35.0342H35.4721V18.297H32.1246V35.0342ZM38.5226 35.0342H41.735V22.5352H41.789L48.187 35.0342H52.2903V18.297H49.0778V30.7959H49.0238L42.6529 18.297H38.5226V35.0342ZM55.3408 35.0342H59.93C65.0592 35.0342 69.5944 33.3065 69.5944 26.6656C69.5944 20.0247 65.0592 18.297 59.93 18.297H55.3408V35.0342ZM58.6882 20.9425H60.5509C63.3584 20.9425 66.058 23.0212 66.058 26.6656C66.058 30.31 63.3584 32.3886 60.5509 32.3886H58.6882V20.9425ZM72.105 35.0342H75.3174V21.2665L75.3714 21.2125L79.8797 35.0072H83.0922L87.6004 21.2125H87.6544V35.0072H90.8669V18.27H85.4948L81.5264 30.9309H81.4724L77.5041 18.27H72.105V35.0342ZM92.2166 35.0342H95.6991L97.1568 31.2008H103.933L105.363 35.0342H109.089L102.529 18.297H98.7495L92.2166 35.0342ZM102.988 28.5552H98.1016L100.531 21.6444H100.585L102.988 28.5552ZM119.536 18.6209C118.321 18.216 116.972 18.027 115.514 18.027C112.571 18.027 109.683 19.4038 109.683 23.1291C109.683 28.6632 117.025 27.3404 117.025 30.5259C117.025 32.0377 115.325 32.6856 114.056 32.6856C112.733 32.6856 111.41 32.2806 110.277 31.6597L109.953 34.6832C111.599 35.0882 112.409 35.3311 114.245 35.3311C117.619 35.3311 120.535 33.9543 120.535 30.283C120.535 24.6679 113.192 25.8827 113.192 22.9942C113.192 21.1855 114.677 20.6726 115.838 20.6726C116.999 20.6726 118.186 20.9425 119.239 21.4014L119.536 18.6209ZM126.177 35.0342H129.524V20.9425H134.303V18.297H121.345V20.9425H126.15V35.0342H126.177ZM136.651 35.0342H146.586V32.3886H140.026V27.6914H145.992V25.0458H140.026V20.9155H146.532V18.27H136.651V35.0342ZM149.501 35.0342H152.849V28.0693H153.928C155.359 28.0693 155.791 28.5552 156.25 29.797L158.275 35.0342H162L159.327 28.5013C159.003 27.7454 158.464 26.8545 157.546 26.7735V26.6926C159.678 26.3956 161.001 24.7759 161.001 22.8052C161.001 18.162 156.709 18.27 153.118 18.27H149.501V35.0342ZM152.849 20.9425H153.955C155.629 20.9425 157.492 21.1045 157.492 23.1291C157.492 25.2078 155.602 25.4508 153.955 25.4508H152.849V20.9425Z" fill="white"/>
</svg>
