<svg width="162" height="54" viewBox="0 0 162 54" fill="none" xmlns="http://www.w3.org/2000/svg">
<g clip-path="url(#clip0_2098_884)">
<path fill-rule="evenodd" clip-rule="evenodd" d="M62.3394 17.1449L56.2376 40.7037H61.1608L67.2636 17.1449H62.3394ZM87.3645 17.1449L78.3464 35.7131H78.2829L78.8198 17.1449H71.6288L65.527 40.7017H70.1221L75.2214 21.0175H75.2878L74.4921 40.7017H79.323L88.8241 21.0175H88.8905L83.7921 40.7017H88.3863L94.4881 17.1449H87.3645ZM113.737 33.7215C114.338 31.3969 114.178 29.1023 111.57 28.0179C112.676 27.5273 114.827 26.5747 115.706 23.189C116.333 20.7548 115.795 17.1449 110.012 17.1449H98.5454L92.4436 40.7046H102.43C107.264 40.7046 108.758 39.8849 110.444 38.5716C112.006 37.3554 113.252 35.589 113.737 33.7215ZM108.948 33.1952C108.327 35.589 106.676 36.6358 104.277 36.6358H98.226L99.853 30.3463H106.129C107.911 30.3463 109.482 31.1314 108.948 33.1952ZM110.833 23.7461C110.346 25.6213 108.606 26.3775 106.669 26.3775H100.882L102.219 21.2166H107.875C110.108 21.2166 111.335 21.8074 110.833 23.7461ZM125.222 17.1449L110.714 40.7046H115.902L118.806 35.841H127.505L127.755 40.7046H133.106L130.903 17.1449H125.222ZM121.171 31.7702L126.605 22.4587H126.67L127.179 31.7702H121.171ZM144.632 17.1449H139.708L133.603 40.7037H150.249L151.354 36.4385H139.633L144.632 17.1449ZM158.055 17.1449L151.951 40.7037H156.875L162.977 17.1449H158.055ZM4.77795 22.1672H1.931L-0.976562 35.8632H8.664L9.19125 33.3866H2.39475L4.77795 22.1672ZM38.8269 40.8961C29.4114 40.9259 33.0627 26.0879 33.5332 23.9558C34.2586 20.6644 39.1453 12.0946 46.5018 12.3082C53.6504 12.3082 53.1232 21.308 53.1232 21.308H57.8857C60.0053 10.7188 51.5337 6.75 46.7693 6.75C42.0048 6.75 33.0031 9.92407 28.5051 21.5707C27.2678 24.7727 26.6155 28.1478 26.5654 31.3671H21.9434L20.6637 22.1682H17.3723L9.59631 35.866H12.602L14.1501 33.0528H19.1897L19.4668 35.866H22.5668L22.1993 33.2183H26.6068C27.0609 40.9095 31.1731 47.25 39.358 47.25C51.5328 47.25 55.5035 33.7503 55.5035 33.7503H49.6807C49.6807 33.7494 48.0931 40.8961 38.8269 40.8961ZM15.4095 30.7052L18.3132 25.2682H18.3508L18.8905 30.7052H15.4095Z" fill="white"/>
</g>
<defs>
<clipPath id="clip0_2098_884">
<rect width="162" height="54" fill="white"/>
</clipPath>
</defs>
</svg>
