<svg width="162" height="54" viewBox="0 0 162 54" fill="none" xmlns="http://www.w3.org/2000/svg">
<g clip-path="url(#clip0_2098_894)">
<path d="M16.3647 15.4977C17.958 16.0378 19.3352 16.8209 20.6045 17.9011L17.4179 21.4927C19.0652 22.897 20.1184 25.0033 20.1184 27.3257C20.1184 31.5654 16.6888 34.995 12.4491 34.995C8.20938 34.995 4.7798 31.5654 4.7798 27.3257C4.7798 24.9763 5.83298 22.897 7.48026 21.4657L5.941 19.7644C3.80764 21.6007 2.48442 24.3012 2.48442 27.3257C2.48442 32.8346 6.94016 37.2904 12.4491 37.2904C17.958 37.2904 22.4138 32.8346 22.4138 27.3257C22.4138 24.3012 21.0635 21.6007 18.9302 19.7644L20.6045 17.9011C23.2509 20.1965 24.9252 23.5451 24.9252 27.3257C24.9252 34.2119 19.3352 39.8288 12.4491 39.8288C5.56293 39.8288 0 34.2119 0 27.3257C0 22.3569 2.91649 18.0091 7.1562 16.0378C6.96717 16.4429 6.80514 16.902 6.83215 17.4691C6.85915 18.8193 7.50726 18.7383 8.07436 20.8986C8.56044 22.816 7.1832 23.9231 7.1832 23.9231H9.23555C9.23555 23.9231 10.4508 22.7889 10.1537 21.1687C9.88366 19.6294 9.26255 19.2784 8.9655 17.7661C8.74947 16.6319 9.5326 15.5787 9.96467 15.0927C10.3697 15.0116 10.7748 14.9576 11.2609 14.9036C11.0449 15.2817 10.1807 16.1728 10.2077 17.442C10.2347 18.7923 10.8828 18.7113 11.4499 20.8716C11.936 22.7889 10.5588 23.8961 10.5588 23.8961H12.6111C12.6111 23.8961 13.8263 22.7619 13.5293 21.1417C13.2592 19.6024 12.6381 19.2514 12.3411 17.7391C12.071 16.3619 13.2862 15.0927 13.5293 14.8496C13.8803 14.8766 14.2044 14.9306 14.5554 14.9846C14.2584 15.4167 13.5293 16.2538 13.5833 17.415C13.6103 18.7653 14.2584 18.6843 14.8255 20.8446C15.3116 22.7619 13.9343 23.8691 13.9343 23.8691H15.9867C15.9867 23.8691 17.2019 22.7349 16.9048 21.1147C16.6348 19.5754 16.0137 19.2243 15.7166 17.7121C15.4736 16.902 15.9327 16.0648 16.3647 15.4977Z" fill="white"/>
<path d="M49.2257 34.9957C46.7413 38.1283 43.2577 39.5865 39.6931 39.5865C32.996 39.5865 27.7031 34.5096 27.7031 27.9475C27.7031 21.4124 32.996 16.3086 39.6931 16.3086C43.2577 16.3086 46.7413 17.7668 49.2257 20.8994L46.5523 22.9247C44.959 20.6023 42.5286 19.3061 39.6931 19.3061C35.1834 19.3061 31.1057 23.0867 31.1057 27.9745C31.1057 32.8354 35.1834 36.643 39.6931 36.643C42.5286 36.643 45.04 35.3198 46.6333 33.1594L49.2257 34.9957Z" fill="white"/>
<path d="M59.0333 21.4395C65.0553 21.4395 68.5389 25.9492 68.5389 30.513C68.5389 35.0767 65.0553 39.5865 59.0333 39.5865C53.0113 39.5865 49.5547 35.0497 49.5547 30.513C49.5547 25.9762 53.0383 21.4395 59.0333 21.4395ZM59.0333 36.643C62.5979 36.643 65.1633 33.9155 65.1633 30.513C65.1633 27.1104 62.5709 24.3829 59.0333 24.3829C55.4687 24.3829 52.9032 27.1104 52.9032 30.513C52.9032 33.9155 55.4957 36.643 59.0333 36.643Z" fill="white"/>
<path d="M79.2556 21.4395C85.2776 21.4395 88.7612 25.9492 88.7612 30.513C88.7612 35.0767 85.2776 39.5865 79.2556 39.5865C73.2336 39.5865 69.75 35.0767 69.75 30.513C69.75 25.9492 73.2606 21.4395 79.2556 21.4395ZM79.2556 36.643C82.8202 36.643 85.3856 33.9155 85.3856 30.513C85.3856 27.1104 82.7932 24.3829 79.2556 24.3829C75.691 24.3829 73.0986 27.1104 73.0986 30.513C73.1256 33.9155 75.691 36.643 79.2556 36.643Z" fill="white"/>
<path d="M92.4893 31.8345H90.0859V28.4589H92.4893V16.793H95.8379V28.4589H97.7282L102.238 21.8968H106.316L100.888 29.9172L106.64 39.1257H102.616L98.0793 31.8345H95.8379V39.1257H92.4893V31.8345Z" fill="white"/>
<path d="M143.747 31.8345H141.344V28.4589H143.747V16.793H147.096V28.4589H148.986L153.496 21.8968H157.573L152.146 29.9172L157.898 39.1257H153.901L149.337 31.8345H147.096V39.1257H143.747V31.8345Z" fill="white"/>
<path d="M113.768 20.1685H106.828V16.793H124.03V20.1685H117.117V39.1257H113.768V20.1685Z" fill="white"/>
<path d="M138.559 35.2118C136.75 38.0472 133.699 39.5865 130.458 39.5865C124.517 39.5865 120.898 35.0767 120.898 30.513C120.898 25.9492 124.436 21.4395 130.458 21.4395C134.239 21.4395 139.802 23.7348 139.802 31.0801L139.775 31.8632H124.328C124.625 34.0776 127.109 36.67 130.404 36.67C132.483 36.67 134.536 35.5628 135.751 33.7535L138.559 35.2118ZM136.237 28.5146C135.346 25.9222 132.888 24.3289 130.431 24.3289C127.974 24.3289 125.165 26.1922 124.544 28.5146H136.237Z" fill="white"/>
<path d="M158.172 23.8412C158.172 22.788 159.009 21.9238 160.089 21.9238C161.169 21.9238 162.007 22.761 162.007 23.8412C162.007 24.8943 161.169 25.7585 160.089 25.7585C159.009 25.7585 158.172 24.8943 158.172 23.8412ZM158.496 23.8412C158.496 24.7323 159.225 25.4344 160.089 25.4344C160.953 25.4344 161.682 24.7323 161.682 23.8412C161.682 22.95 160.953 22.2479 160.089 22.2479C159.225 22.2209 158.496 22.923 158.496 23.8412ZM160.953 24.9213H160.602L160.062 23.9222H159.657V24.9213H159.36V22.788H160.251C160.629 22.788 160.98 22.896 160.98 23.3551C160.98 23.7871 160.683 23.9222 160.413 23.9492L160.953 24.9213ZM159.657 23.085V23.6251H159.981C160.278 23.6251 160.656 23.6791 160.656 23.3821C160.656 23.112 160.44 23.085 160.17 23.085H159.657Z" fill="white"/>
</g>
<defs>
<clipPath id="clip0_2098_894">
<rect width="162" height="54" fill="white"/>
</clipPath>
</defs>
</svg>
