<svg width="120" height="56" viewBox="0 0 120 56" fill="none" xmlns="http://www.w3.org/2000/svg">
<g clip-path="url(#clip0_2113_1106)">
<path d="M0.417969 48.3232H119.231" stroke="#666666" stroke-width="0.624458"/>
<path d="M76.293 24.2393H70.4922V46.0959H92.556V24.2393H86.9106V40.4505H76.293V24.2393Z" fill="#00AD7F"/>
<path d="M113.43 45.8369H119.23V23.9802H97.1666V45.8369H102.812V29.6257H113.43V45.8369Z" fill="#00AD7F"/>
<path d="M2.41902 50.7587C2.34161 50.4298 2.08358 50.2233 1.65138 50.2233C1.1837 50.2201 0.854719 50.4781 0.857944 50.8168C0.854719 51.0845 1.05792 51.2716 1.48366 51.378L2.01907 51.507C2.60931 51.6522 2.90604 51.965 2.90282 52.4359C2.90604 53.0326 2.41902 53.4648 1.59332 53.4616C0.845043 53.4648 0.387042 53.1197 0.296733 52.5004H0.754733C0.825691 52.881 1.10952 53.0745 1.58687 53.0745C2.11261 53.0745 2.45449 52.8359 2.45772 52.4617C2.45449 52.1843 2.2642 51.9908 1.85135 51.8941L1.31594 51.765C0.725705 51.6264 0.416071 51.3006 0.412845 50.8361C0.416071 50.2556 0.916 49.8363 1.65138 49.8363C2.33838 49.8395 2.77703 50.2137 2.85766 50.7587H2.41902Z" fill="#6D6D6D"/>
<path d="M41.3682 50.7587C41.2908 50.4298 41.0328 50.2233 40.6006 50.2233C40.1329 50.2201 39.8039 50.4781 39.8072 50.8168C39.8039 51.0845 40.0071 51.2716 40.4329 51.378L40.9683 51.507C41.5585 51.6522 41.8553 51.965 41.852 52.4359C41.8553 53.0326 41.3682 53.4648 40.5425 53.4616C39.7943 53.4648 39.3363 53.1197 39.246 52.5004H39.704C39.7749 52.881 40.0587 53.0745 40.5361 53.0745C41.0618 53.0745 41.4037 52.8359 41.4069 52.4617C41.4037 52.1843 41.2134 51.9908 40.8006 51.8941L40.2652 51.765C39.6749 51.6264 39.3653 51.3006 39.3621 50.8361C39.3653 50.2556 39.8652 49.8363 40.6006 49.8363C41.2876 49.8395 41.7262 50.2137 41.8069 50.7587H41.3682Z" fill="#6D6D6D"/>
<path d="M19.6756 50.2766H20.0792L21.1229 51.9603H21.1524L22.1961 50.2766H22.5998L21.3149 52.3147V53.8408H20.9604V52.3147L19.6756 50.2766Z" fill="#6D6D6D"/>
<path d="M58.1833 50.2641V49.9273H60.9671V50.2641H59.7673V53.7373H59.3884V50.2641H58.1833Z" fill="#6D6D6D"/>
<path d="M77.6606 53.9443V50.2572H79.8199V50.5832H78.0222V51.9378H79.7079V52.2587H78.0222V53.6184H79.8556V53.9443H77.6606Z" fill="#6D6D6D"/>
<path d="M96.244 50.2611H96.6604L97.9599 53.3818H97.995L99.2894 50.2611H99.7109V53.8936H99.3697V50.9986H99.3396L98.1355 53.8936H97.8144L96.6102 50.9986H96.5801V53.8936H96.244V50.2611Z" fill="#6D6D6D"/>
<path d="M118.703 51.494C118.661 51.0487 118.283 50.7742 117.756 50.7714C117.196 50.7742 116.812 51.0851 116.815 51.5108C116.812 51.9338 117.232 52.127 117.616 52.2335L118.036 52.3511C118.546 52.494 119.148 52.7629 119.145 53.4435C119.148 54.1017 118.619 54.6003 117.728 54.5975C116.891 54.6003 116.364 54.1577 116.316 53.5051H116.725C116.767 53.9813 117.193 54.2362 117.728 54.239C118.328 54.2362 118.759 53.9169 118.759 53.4379C118.759 53.0346 118.412 52.8497 117.919 52.7096L117.437 52.5696C116.798 52.3819 116.426 52.0542 116.423 51.5276C116.426 50.8666 117.008 50.4157 117.767 50.4185C118.529 50.4157 119.067 50.8722 119.095 51.494H118.703Z" fill="#6D6D6D"/>
<path d="M0.0507812 24.084V45.7853H5.74802V29.6776H8.80381V45.7853H13.9831V29.6776H17.0389V45.7853H22.6326V24.084H0.0507812Z" fill="#005BAA"/>
<path d="M27.0391 45.837V24.1875H32.8399V45.837H27.0391Z" fill="#005BAA"/>
<path d="M36.7695 45.837V24.1875H42.5704V45.837H36.7695Z" fill="#005BAA"/>
<path d="M66.294 0L43.2461 33.4583L51.5848 45.9404H57.7481L48.9951 33.4583L71.9912 0H66.294Z" fill="#005BAA"/>
<path d="M74.5323 0L51.4844 33.4583L59.8231 45.9404H65.9864L57.2334 33.4583L80.2295 0H74.5323Z" fill="#00AD7F"/>
</g>
<defs>
<clipPath id="clip0_2113_1106">
<rect width="120" height="56" fill="white"/>
</clipPath>
</defs>
</svg>
